<svg xmlns="http://www.w3.org/2000/svg" width="194" height="52" viewBox="0 0 194 52"><defs><style>.a{fill:#3d3d3d;}.b{fill:#fff;fill-rule:evenodd;}.c{fill:#b7b7b7;font-size:9px;font-family:Poppins-SemiBold, Poppins;font-weight:600;}</style></defs><g transform="translate(-355 -990)"><rect class="a" width="194" height="52" rx="26" transform="translate(355 990)"/><g transform="translate(385.649 997.689)"><path class="b" d="M1769.673,5327.852l-1.408-4.162H1762.4l-1.408,4.162H1758.5l5.559-15.4h2.582l5.559,15.4Zm-4.375-12.836L1763,5321.77h4.652l-2.294-6.754h-.064Zm14.17,1.495c2.849,0,4.727,2.251,4.727,5.73s-1.867,5.73-4.684,5.73a3.8,3.8,0,0,1-3.532-1.963h-.054v5.558h-2.305v-14.938h2.23v1.867h.043a3.979,3.979,0,0,1,3.574-1.984Zm-.608,9.506c1.792,0,2.966-1.483,2.966-3.776,0-2.273-1.174-3.767-2.966-3.767-1.76,0-2.945,1.526-2.945,3.767C1775.913,5324.5,1777.1,5326.017,1778.859,5326.017Zm12.953-9.506c2.849,0,4.727,2.251,4.727,5.73s-1.867,5.73-4.684,5.73a3.8,3.8,0,0,1-3.532-1.963h-.054v5.558h-2.3v-14.938h2.23v1.867h.043a3.979,3.979,0,0,1,3.574-1.984Zm-.608,9.506c1.792,0,2.966-1.483,2.966-3.776,0-2.273-1.174-3.767-2.966-3.767-1.76,0-2.945,1.526-2.945,3.767C1788.258,5324.5,1789.443,5326.017,1791.2,5326.017Zm11.128-2.454c.149,2.785,2.454,4.545,5.868,4.545,3.649,0,5.943-1.8,5.943-4.684,0-2.251-1.312-3.521-4.47-4.267l-1.7-.417c-1.984-.491-2.8-1.131-2.8-2.219,0-1.365,1.27-2.305,3.127-2.305s3.126.928,3.265,2.465h2.326c-.075-2.657-2.305-4.481-5.559-4.481-3.287,0-5.6,1.824-5.6,4.481,0,2.144,1.313,3.468,4.14,4.151l2,.479c2,.491,2.838,1.206,2.838,2.4,0,1.376-1.4,2.379-3.34,2.379-2.027,0-3.511-1-3.681-2.529Zm14.352-9.592v2.657h-1.633v1.824h1.633v6.434c0,2.177.886,3.03,3.158,3.03a6.4,6.4,0,0,0,1.281-.106V5326a6.928,6.928,0,0,1-.757.054c-.939,0-1.366-.449-1.366-1.409v-6.188h2.134v-1.825H1819v-2.657Zm11.161,14.02c-3.265,0-5.324-2.208-5.324-5.751s2.081-5.751,5.324-5.751,5.324,2.22,5.324,5.751S1831.109,5327.99,1827.844,5327.99Zm0-1.9c1.867,0,2.977-1.419,2.977-3.852s-1.11-3.852-2.977-3.852-2.977,1.441-2.977,3.852C1824.868,5324.672,1825.978,5326.091,1827.844,5326.091Zm7.106,1.76h2.305v-6.657a2.321,2.321,0,0,1,2.4-2.582,3.234,3.234,0,0,1,1.035.139v-2.155a3.523,3.523,0,0,0-.79-.085,2.676,2.676,0,0,0-2.7,2.027h-.054v-1.91h-2.2Zm11.865-9.5a2.842,2.842,0,0,0-2.86,2.849h5.613a2.7,2.7,0,0,0-2.752-2.849Zm2.743,6.2h2.187c-.309,2.038-2.294,3.436-4.833,3.436-3.265,0-5.292-2.187-5.292-5.7s2.038-5.8,5.2-5.8c3.106,0,5.057,2.134,5.057,5.538v.79h-7.927v.138a2.922,2.922,0,0,0,3.019,3.179,2.54,2.54,0,0,0,2.593-1.579Zm-106.285,1.373c-1.323,1.925-2.69,3.838-4.849,3.879-2.125.041-2.807-1.253-5.231-1.253s-3.187,1.212-5.194,1.293c-2.084.077-3.67-2.08-5-4-2.724-3.917-4.8-11.079-2.007-15.912a7.755,7.755,0,0,1,6.553-3.958c2.047-.037,3.981,1.374,5.231,1.374s3.6-1.695,6.068-1.446a7.415,7.415,0,0,1,5.794,3.126,7.154,7.154,0,0,0-3.421,6.014,6.971,6.971,0,0,0,4.253,6.386,17.323,17.323,0,0,1-2.2,4.492Zm-9.067-25.266a7.124,7.124,0,0,1,4.668-2.392,6.943,6.943,0,0,1-1.651,5.043,5.878,5.878,0,0,1-4.7,2.234A6.6,6.6,0,0,1,1734.206,5300.662Z" transform="translate(-1719.661 -5295.25)"/><text class="c" transform="translate(79.499 9)"><tspan x="-38.848" y="0">Download on the</tspan></text></g></g></svg>