<svg xmlns="http://www.w3.org/2000/svg" xmlns:xlink="http://www.w3.org/1999/xlink" width="154" height="41" viewBox="0 0 154 41"><defs><style>.a{fill:#3d3d3d;}.b{fill:#fff;}.b,.c,.d,.e,.f{fill-rule:evenodd;}.c{fill:#5bc9f4;}.d{fill:url(#a);}.e{fill:url(#b);}.f{fill:url(#c);}.g{fill:#a7a7a7;font-size:7px;font-family:Poppins-SemiBold, Poppins;font-weight:600;}</style><linearGradient id="a" x1="0.808" y1="0.5" x2="-1.573" y2="0.5" gradientUnits="objectBoundingBox"><stop offset="0" stop-color="#fedf00"/><stop offset="1" stop-color="#f89b1b"/></linearGradient><linearGradient id="b" x1="0.662" y1="-1.102" x2="-0.301" y2="0.976" gradientUnits="objectBoundingBox"><stop offset="0" stop-color="#ef4547"/><stop offset="1" stop-color="#c7186d"/></linearGradient><linearGradient id="c" x1="-0.344" y1="0.385" x2="0.443" y2="2.082" gradientUnits="objectBoundingBox"><stop offset="0" stop-color="#279e70"/><stop offset="1" stop-color="#73c168"/></linearGradient></defs><g transform="translate(-30 -926)"><rect class="a" width="154" height="41" rx="20.5" transform="translate(30 926)"/><g transform="translate(61.402 932.519)"><path class="b" d="M4287.6,6118.414h1.471V6108.5H4287.6Zm13.25-6.344-1.687,4.3h-.05l-1.75-4.3h-1.584l2.624,6.009-1.5,3.341h1.535l4.044-9.35Zm-8.342,5.217c-.482,0-1.154-.241-1.154-.841,0-.765.837-1.059,1.559-1.059a2.61,2.61,0,0,1,1.345.331A1.787,1.787,0,0,1,4292.506,6117.286Zm.177-5.434a2.759,2.759,0,0,0-2.625,1.518l1.306.549a1.391,1.391,0,0,1,1.344-.728,1.419,1.419,0,0,1,1.547,1.275v.1a3.236,3.236,0,0,0-1.534-.383c-1.408,0-2.841.778-2.841,2.233a2.282,2.282,0,0,0,2.447,2.181,2.073,2.073,0,0,0,1.877-.97h.051v.766h1.419v-3.8A2.709,2.709,0,0,0,4292.684,6111.853Zm-9.091,1.423H4281.5v-3.4h2.092a1.7,1.7,0,1,1,0,3.4Zm-.038-4.778h-3.525v9.916h1.47v-3.757h2.055a3.083,3.083,0,1,0,0-6.159Zm-19.222,8.791a2.053,2.053,0,0,1,0-4.089,2.062,2.062,0,0,1,0,4.089Zm1.69-4.664h-.051a2.317,2.317,0,0,0-1.765-.753,3.377,3.377,0,0,0,0,6.746,2.28,2.28,0,0,0,1.765-.766h.051v.485c0,1.291-.686,1.98-1.791,1.98a1.856,1.856,0,0,1-1.689-1.2l-1.283.536a3.2,3.2,0,0,0,2.972,1.994c1.728,0,3.188-1.023,3.188-3.515v-6.057h-1.4Zm2.413,5.789h1.474V6108.5h-1.474Zm3.646-3.271a1.845,1.845,0,0,1,1.752-1.968,1.3,1.3,0,0,1,1.245.716Zm4.572-1.124a3.118,3.118,0,0,0-2.87-2.147,3.2,3.2,0,0,0-3.163,3.373,3.29,3.29,0,0,0,3.327,3.373,3.33,3.33,0,0,0,2.795-1.5l-1.144-.766a1.912,1.912,0,0,1-1.651.933,1.7,1.7,0,0,1-1.625-1.022l4.484-1.865Zm-35.719-1.113v1.432h3.4a2.993,2.993,0,0,1-.775,1.8,3.475,3.475,0,0,1-2.629,1.048,3.809,3.809,0,0,1,0-7.616,3.616,3.616,0,0,1,2.566,1.022l1-1.01a4.947,4.947,0,0,0-3.569-1.444,5.239,5.239,0,1,0,0,10.478,4.85,4.85,0,0,0,4.788-5.712Zm8.734,4.383a2.051,2.051,0,1,1,1.892-2.044A1.946,1.946,0,0,1,4249.668,6117.289Zm0-5.417a3.373,3.373,0,1,0,3.365,3.373A3.315,3.315,0,0,0,4249.668,6111.871Zm7.342,5.417a2.051,2.051,0,1,1,1.893-2.044A1.946,1.946,0,0,1,4257.01,6117.289Zm0-5.417a3.373,3.373,0,1,0,3.366,3.373A3.315,3.315,0,0,0,4257.01,6111.871Z" transform="translate(-4211.158 -6094.768)"/><path class="c" d="M1753.255,5338.539a1.591,1.591,0,0,0-.365,1.113v17.526a1.593,1.593,0,0,0,.365,1.114l.058.057,9.759-9.818v-.231l-9.759-9.818Z" transform="translate(-1752.89 -5332.702)"/><path class="d" d="M2788.183,6008.71l-3.253-3.274v-.232l3.253-3.273.073.042,3.854,2.2a1.206,1.206,0,0,1,0,2.288l-3.854,2.2Z" transform="translate(-2774.749 -5989.606)"/><path class="e" d="M1803.023,6348.818l-3.327-3.349-9.817,9.878a1.275,1.275,0,0,0,1.637.048Z" transform="translate(-1789.515 -6329.756)"/><path class="f" d="M1803.023,5319.242l-11.507-6.577a1.273,1.273,0,0,0-1.637.048l9.817,9.875Z" transform="translate(-1789.515 -5306.876)"/><text class="g" transform="translate(41.356 7)"><tspan x="-16.758" y="0">GET IT ON</tspan></text></g></g></svg>