<svg xmlns="http://www.w3.org/2000/svg" width="241.695" height="329.937" viewBox="0 0 241.695 329.937"><defs><style>.a{fill:#162763;}.b{fill:#344684;opacity:0.25;}</style></defs><g transform="translate(-1251.592 269)"><path class="a" d="M627.077,0C517.457,0,428.592,73.859,428.592,164.968s88.864,164.968,198.484,164.968S603.17,246.881,603.17,155.771,736.7,0,627.077,0Z" transform="translate(823 -269)"/><g transform="translate(1354.205 -184.629)"><path class="b" d="M397.841,185.4c15.647.2,27.839,4.73,38.405,13.716,6.434,5.473,7.586,13.784,2.574,19.392-5.08,5.743-13.412,6.014-19.778.54-13.479-11.486-31.631-10.135-42,3.108a27.929,27.929,0,0,0,2.574,37.635,28.317,28.317,0,0,0,38.27,1.419,27.152,27.152,0,0,1,4.674-3.648,13.654,13.654,0,0,1,17.272,4.257c3.793,5.54,2.912,12.635-2.642,17.432-14.02,12.094-30.277,16.959-48.565,13.378-25.806-5.068-44.027-26.621-44.636-52.162-.61-25.067,17.475-47.77,42.875-53.648A76.255,76.255,0,0,1,397.841,185.4Z" transform="translate(-343.978 -185.4)"/><path class="b" d="M401.9,257.075A15.422,15.422,0,0,1,417.479,241.4c9.076-.068,15.714,6.757,15.578,16.149a15.886,15.886,0,0,1-15.307,15.608C408.876,273.291,401.9,266.2,401.9,257.075Z" transform="translate(-362.669 -203.563)"/></g></g></svg>